# xmcd
#
# Track frame offsets:
#	150
#	12084
#	27178
#	41038
#	54377
#	73489
#	91606
#	107828
#	122760
#	133119
#	152211
#	164872
#	179966
#	194950
#
# Disc length: 2916 seconds
# Revision: 0
# Processed by: cddbd v1.5.2PL0 Copyright (c) Steve Scherf et al.
# Submitted via: dBpowerAMP V12.0
#
DISCID=d50b620e
DTITLE=Macy Blackman and the Mighty Fines - I Didn't Want To Do It
DYEAR=2013
DGENRE=Blues
TTITLE0=I Didn't Want To Do It
TTITLE1=I Like It Like That
TTITLE2=Rockin' Good Way
TTITLE3=Dreams To Remember
TTITLE4=Something's Got A Hold On Me
TTITLE5=Just The Same
TTITLE6=Somebody Told You
TTITLE7=What Do I Tell My Heart
TTITLE8=Help Yourself
TTITLE9=I Never Fooled Nobody But Me
TTITLE10=The Good Book
TTITLE11=You're Just A Fool
TTITLE12=Who Shot The La La
TTITLE13=Higher and Higher (Live)
EXTD=
EXTT0=
EXTT1=
EXTT2=
EXTT3=
EXTT4=
EXTT5=
EXTT6=
EXTT7=
EXTT8=
EXTT9=
EXTT10=
EXTT11=
EXTT12=
EXTT13=
PLAYORDER=
